<?xml version="1.0" encoding="UTF-8"?>
<!DOCTYPE svg PUBLIC "-//W3C//DTD SVG 1.0//EN" "http://www.w3.org/TR/2001/REC-SVG-20010904/DTD/svg10.dtd">
<!-- Creator: CorelDRAW 2021.5 -->
<svg xmlns="http://www.w3.org/2000/svg" xml:space="preserve" width="250mm" height="30.5297mm" version="1.0" style="shape-rendering:geometricPrecision; text-rendering:geometricPrecision; image-rendering:optimizeQuality; fill-rule:evenodd; clip-rule:evenodd"
viewBox="0 0 24994.14 3052.25"
 xmlns:xlink="http://www.w3.org/1999/xlink"
 xmlns:xodm="http://www.corel.com/coreldraw/odm/2003">
 <defs>
  <style type="text/css">
   <![CDATA[
    .fil0 {fill:#104493}
   ]]>
  </style>
 </defs>
 <g id="Layer_x0020_1">
  <metadata id="CorelCorpID_0Corel-Layer"/>
  <path class="fil0" d="M2762.65 631.55l0.13 0.19c-0.04,-0.07 -0.09,-0.13 -0.13,-0.19z"/>
  <path class="fil0" d="M4578.32 0.04c842.84,0 1526.1,683.26 1526.1,1526.1 0,842.85 -683.26,1526.11 -1526.1,1526.11 -492.4,0 -945.7,-233.51 -1235.75,-630.42 -348.96,-482.99 -701.83,-966.2 -1052.52,-1449.01 -180.82,-245.63 -457.94,-389.88 -763.94,-389.88 -520.92,0 -943.2,422.28 -943.2,943.2 0,520.92 422.28,943.21 943.2,943.21 520.92,0 943.21,-422.29 943.21,-943.21l451.18 621.15c-237.9,533.27 -772.74,904.96 -1394.39,904.96 -842.84,0 -1526.1,-683.26 -1526.1,-1526.11 0,-842.84 683.26,-1526.1 1526.1,-1526.1 508.09,0 958.19,248.29 1235.57,630.16 352.01,482.23 701.83,966.2 1052.7,1449.26 175.23,244.66 463.7,389.89 763.94,389.89 520.92,0 943.21,-422.29 943.21,-943.21 0,-520.92 -422.29,-943.2 -943.21,-943.2 -520.92,0 -943.21,422.28 -943.21,943.2l-451.18 -621.14 0 -904.96 576.44 0 0 237.48c236.41,-150.37 517.01,-237.48 817.95,-237.48z"/>
  <path class="fil0" d="M7630.53 0.04c-842.85,0 -1526.11,683.26 -1526.11,1526.11 0,842.84 683.26,1526.1 1526.11,1526.1 564.88,0 1058.07,-306.9 1321.94,-763.05l-504.92 -291.45c-163.08,281.92 -467.9,471.6 -817.02,471.6 -520.92,0 -943.21,-422.28 -943.21,-943.2 0,-520.92 422.29,-943.21 943.21,-943.21 349.12,0 653.94,189.68 817.02,471.6l504.92 -291.45c-263.87,-456.15 -757.06,-763.05 -1321.94,-763.05z"/>
  <path class="fil0" d="M11625.94 1526.15c0,520.92 -422.28,943.2 -943.2,943.2 -520.92,0 -943.21,-422.28 -943.21,-943.2 0,-520.92 422.29,-943.21 943.21,-943.21 520.92,0 943.2,422.29 943.2,943.21zm576.44 -1526.11l-576.44 0 0 326.29c-259.61,-204.37 -587.16,-326.29 -943.2,-326.29 -842.85,0 -1526.11,683.26 -1526.11,1526.11 0,842.84 683.26,1526.1 1526.11,1526.1 842.84,0 1526.1,-683.26 1526.1,-1526.1 0,-507.93 -6.46,-1017.46 -6.46,-1526.11z"/>
  <path class="fil0" d="M12836.58 1237.92c121.79,-379.96 477.96,-654.99 898.36,-654.99 420.39,0 776.55,275.03 898.35,654.99l-1796.71 0zm2397.28 576.43c17.84,-93.34 27.18,-189.68 27.18,-288.22 0,-839.51 -679.94,-1526.1 -1526.1,-1526.1 -842.85,0 -1526.1,683.26 -1526.1,1526.1 0,842.86 683.25,1526.12 1526.1,1526.12 335.19,0 645.17,-108.08 896.95,-291.28l-342.6 -471.65c-155.61,113.22 -347.18,180.02 -554.35,180.02 -420.4,0 -776.57,-275.04 -898.36,-654.99l2397.28 0z"/>
  <path class="fil0" d="M17684.09 291.31c-251.78,-183.21 -561.74,-291.28 -896.95,-291.28 -846.17,0 -1526.1,686.59 -1526.1,1526.1 0,98.55 9.34,194.88 27.17,288.22 799.1,0 1598.19,0 2397.28,0 -121.79,379.95 -477.96,654.99 -898.35,654.99 -207.18,0 -398.75,-66.79 -554.36,-180.02l-342.6 471.65c251.79,183.2 561.76,291.28 896.96,291.28 846.17,0 1526.1,-686.6 1526.1,-1526.12 0,-98.53 -9.35,-194.88 -27.17,-288.21l-2397.29 0c121.8,-379.96 477.96,-654.99 898.36,-654.99 207.17,0 398.74,66.79 554.35,180.02l342.6 -471.64z"/>
  <polygon class="fil0" points="18313.25,3052.23 18889.69,3052.23 18889.69,1237.92 18313.25,1237.92 "/>
  <path class="fil0" d="M20415.79 0.03c-842.84,0 -1526.1,683.26 -1526.1,1526.1 0,842.86 683.26,1526.11 1526.1,1526.11 842.79,0 1521.6,-681.47 1526.07,-1517.87 -0.46,-101.33 -8.09,-196.75 -27.15,-296.45l-1498.92 0 0 576.43 898.36 0c-121.81,379.95 -477.97,654.99 -898.36,654.99 -520.93,0 -943.21,-422.28 -943.21,-943.21 0,-520.91 422.28,-943.2 943.21,-943.2 207.16,0 398.74,66.79 554.35,180.02l342.59 -471.64c-251.77,-183.21 -561.74,-291.28 -896.94,-291.28z"/>
  <path class="fil0" d="M22524.79 1526.13c0,-520.91 422.28,-943.2 943.21,-943.2 520.92,0 943.2,422.29 943.2,943.2l0.03 1526.12 582.91 0 -0.01 -1526.12c0.69,-806.97 -631.6,-1481.54 -1446.69,-1524.02 -874.29,-45.58 -1605.54,655.55 -1605.54,1524.02l-0.03 1526.12 582.92 0 0 -1526.12z"/>
  <path class="fil0" d="M18347.23 683.66c48.57,-22.66 144.2,-38.08 254.24,-38.08 159.18,0 288.22,32.25 288.21,72.05l138.92 -717.6 -715.34 141.17c39.79,0 72.07,129.03 72.07,288.21 0,110.04 -15.43,205.68 -38.1,254.25z"/>
 </g>
</svg>
